<svg width="260" height="100" xmlns="http://www.w3.org/2000/svg">
 <!-- Created with Method Draw - http://github.com/duopixel/Method-Draw/ -->
 <defs>
  <linearGradient y2="0" x2="1" y1="0" x1="0" id="svg_7">
   <stop offset="0" stop-color="#bf00bf"/>
   <stop offset="1" stop-color="#40ff40"/>
  </linearGradient>
 </defs>
 <g>
  <text stroke="#bf00bf" xml:space="preserve" text-anchor="start" font-family="Arvo, sans-serif" font-size="60" id="svg_8" y="68" x="74" stroke-width="0" fill="#ff56aa">shai.js</text>
  <g id="svg_21">
   <path id="svg_19" d="m3.008896,34.409727l16.987718,-16.987716l24.024561,0l16.987718,16.987716l0,24.024563l-16.987718,16.987718l-24.024561,0l-16.987718,-16.987718l0,-24.024563z" stroke-opacity="0" stroke-width="0" stroke="url(#svg_7)" fill="#aaffff"/>
   <path id="svg_15" d="m41.071396,15.516737c0,0 -15,38 -15,38" opacity="0.5" fill-opacity="null" stroke-opacity="0" stroke-width="0" stroke="url(#svg_7)" fill="#ff7f00"/>
   <path stroke="url(#svg_7)" id="svg_16" d="m19.82892,17.509517l23.937487,0l-11.968744,28.911927l11.968744,28.911927l-23.937512,0l11.968768,-28.911927l-11.968744,-28.911927z" stroke-opacity="0" stroke-width="0" fill="#00bfbf"/>
   <path transform="rotate(90 31.797653198242184,46.42144393920899) " stroke="url(#svg_7)" id="svg_20" d="m19.82892,17.509518l23.937487,0l-11.968743,28.911927l11.968743,28.911927l-23.937512,0l11.968769,-28.911927l-11.968744,-28.911927z" stroke-opacity="0" stroke-width="0" fill="#00bfbf"/>
  </g>
 </g>
</svg>